<svg width="66" height="66" viewBox="0 0 66 66" fill="none" xmlns="http://www.w3.org/2000/svg">
<path fill-rule="evenodd" clip-rule="evenodd" d="M34.9004 1.90071C34.9004 2.58353 34.5403 3.18225 33.9997 3.51737V8.35249C35.853 8.56955 37.56 9.38354 38.9857 10.6313C40.6655 11.4192 42.241 12.5342 43.6732 13.9489C45.1524 15.4098 46.4454 17.1571 47.5158 19.1415C48.597 21.1467 49.4273 23.3491 49.9825 25.6878C50.5187 27.9466 50.7905 30.3017 50.7905 32.6879C50.7905 33.2566 50.7749 33.8257 50.7438 34.3929C59.1019 35.9803 64.5605 38.6233 65.6869 41.3845C67.6896 46.2934 59.8793 50.538 48.1228 52.4371C47.3116 53.7453 46.1125 54.9237 44.6159 55.9112L49.8127 61.1079C50.7368 60.2849 51.7624 59.83 52.5381 59.8513C52.936 59.8408 53.2756 59.9476 53.5132 60.1852C54.2555 60.9274 53.7212 62.6652 52.3198 64.0666C51.3267 65.0597 50.1647 65.6174 49.3078 65.5938C48.9098 65.6044 48.5702 65.4976 48.3325 65.26C47.6295 64.5569 48.0717 62.9607 49.3113 61.6032L44.0031 56.295C41.1146 58.0118 37.2649 59.0587 33.0124 59.0587C28.841 59.0587 25.0362 58.0395 22.1545 56.3631L16.7379 61.7798C17.8579 63.0965 18.234 64.5874 17.5612 65.2602C16.8189 66.0025 15.0811 65.4682 13.6798 64.0668C12.2784 62.6654 11.7441 60.9276 12.4863 60.1853C13.2086 59.4631 14.8734 59.9495 16.2537 61.2673L21.5365 55.9844C19.9774 54.9781 18.7296 53.7682 17.8953 52.421C5.64243 50.6756 -1.89826 46.8687 0.416486 41.3845C1.57134 38.6485 6.97617 36.0146 15.2563 34.4207C15.2239 33.8434 15.2076 33.2647 15.2076 32.6872C15.2076 30.367 15.4649 28.0739 15.9732 25.8703C16.5176 23.5088 17.3409 21.2836 18.4209 19.2562C19.4894 17.2503 20.7836 15.4839 22.2679 14.0053C23.7166 12.5627 25.3131 11.4276 27.0172 10.6287C28.4418 9.38241 30.1477 8.5694 31.9997 8.35248V3.51741C31.459 3.1823 31.0989 2.58355 31.0989 1.90071C31.0989 0.850975 31.9499 0 32.9996 0C34.0494 0 34.9004 0.850975 34.9004 1.90071Z" fill="#000319"/>
<path d="M19.9913 36.3636C19.9913 42.0857 25.6902 46.7243 32.7201 46.7243C37.6534 46.7243 41.9312 44.44 44.0441 41.0999C44.9421 39.6804 45.449 38.0702 45.449 36.3636C45.449 30.6416 39.7501 26.0029 32.7201 26.0029C25.6902 26.0029 19.9913 30.6416 19.9913 36.3636Z" fill="#5375EF"/>
<path d="M44.0441 41.0999C41.9312 44.44 37.6534 46.7243 32.7201 46.7243C25.6902 46.7243 19.9913 42.0857 19.9913 36.3636C19.9913 30.6416 25.6902 26.0029 32.7201 26.0029C39.7501 26.0029 45.449 30.6416 45.449 36.3636C45.449 38.0702 44.9421 39.6804 44.0441 41.0999ZM44.0441 41.0999C41.8967 42.58 35.6803 43.1129 33.3122 40.5079" stroke="#000319" stroke-linecap="round"/>
<circle cx="5.5" cy="5.5" r="5.5" transform="matrix(-1 0 0 1 43 20.2207)" fill="#F2F2F2" stroke="#000319"/>
<circle cx="5.5" cy="5.5" r="5.5" transform="matrix(-1 0 0 1 37 22.2207)" fill="#F2F2F2" stroke="#000319"/>
<circle cx="1" cy="1" r="1" transform="matrix(-1 0 0 1 33 27.2207)" fill="#000319"/>
<circle cx="1" cy="1" r="1" transform="matrix(-1 0 0 1 33 27.2207)" stroke="#000319"/>
<circle cx="1" cy="1" r="1" transform="matrix(-1 0 0 1 40 25.2207)" fill="#000319"/>
<circle cx="1" cy="1" r="1" transform="matrix(-1 0 0 1 40 25.2207)" stroke="#000319"/>
<path d="M42.1538 37.4217C41.5077 35.9261 40.3974 36.1372 40 36.4297C39.6026 36.1372 38.4923 35.9261 37.8462 37.4217C37.6538 37.994 36.5769 38.2611 36 37.8414C36 38.5663 37.2601 39.5053 38.4615 39.1386C39.4615 38.8334 39.8462 37.994 40 37.5743C40.1538 37.994 40.678 38.8874 41.4615 39.0623C43 39.4057 44 38.5663 44 37.8414C43.4231 38.2611 42.3462 37.994 42.1538 37.4217Z" fill="black"/>
</svg>
